<svg width="127" height="41" viewBox="0 0 127 41" fill="none" xmlns="http://www.w3.org/2000/svg">
<g clip-path="url(#clip0_64_157)">
<path d="M23.0792 21.9684C21.7836 22.1728 20.9881 23.4111 21.4628 24.513C22.0144 25.7853 23.7207 26.2056 24.824 25.3536C25.4269 24.8879 25.645 24.4789 25.645 23.8314C25.645 22.6272 24.4519 21.7525 23.0792 21.9684Z" fill="white"/>
<path d="M71.7008 25.3876V28.8069L71.0978 28.3411C69.7892 27.3188 67.9419 26.8417 66.2741 27.0802C63.811 27.4551 61.9252 29.1137 61.1554 31.5901C60.7962 32.7716 60.7705 35.1799 61.1041 36.2818C61.9252 38.974 63.888 40.5872 66.6975 40.8825C68.1985 41.0416 69.9817 40.485 71.0978 39.508L71.7008 38.974V39.7806V40.5985H73.6251H75.5494V31.2834V21.9683H73.6251H71.7008V25.3876ZM69.8534 30.2723C70.9824 30.7495 71.7008 32.1241 71.7008 33.7826C71.7008 36.4522 70.4692 37.9858 68.3011 37.9858C66.3768 37.9858 65.0939 36.6566 64.9399 34.4983C64.7346 31.6355 66.2228 29.8066 68.5961 29.9656C68.9682 29.9997 69.5327 30.136 69.8534 30.2723Z" fill="white"/>
<path d="M0.384867 23.2406C0.602959 23.7632 1.0648 24.8764 1.39835 25.7171C2.45032 28.3185 5.59341 35.9864 6.58124 38.3266L7.50492 40.5418H9.92955H12.3414L13.0855 38.781C13.6499 37.4178 19.6796 23.1384 19.9746 22.4454C20.0132 22.3318 19.5256 22.3091 17.6141 22.3318L15.2022 22.3659L14.7661 23.5587C12.9315 28.6252 10.2118 35.941 10.0835 36.2023C9.92955 36.509 9.89111 36.4408 9.31379 34.7823C8.96742 33.8281 7.79998 30.6246 6.70952 27.6709L4.72104 22.3091H2.36052H0L0.384867 23.2406Z" fill="white"/>
<path d="M83.7472 27.0919C80.1166 27.5577 77.7305 30.3522 77.7305 34.0896C77.7432 37.3386 79.6291 39.7809 82.8235 40.667C84.5426 41.1328 87.3521 40.9397 88.9429 40.2467C89.7768 39.8831 91.0725 39.0652 91.0725 38.9063C91.0725 38.8494 90.6107 38.3496 90.0333 37.7816L88.9943 36.7478L88.2373 37.2136C87.1853 37.8384 86.3643 38.0997 85.3765 38.0997C84.4014 38.0997 83.6574 37.8838 82.9903 37.418C82.4643 37.0432 81.8999 36.1572 81.7588 35.4641L81.6818 35.0324L86.6594 35.0097L91.6498 34.9757L91.6113 33.7147C91.5343 30.727 90.2899 28.6709 87.9422 27.6485C86.5183 27.0237 85.3765 26.876 83.7472 27.0919ZM86.0436 29.9886C86.3001 30.0795 86.6721 30.2954 86.8646 30.4544C87.288 30.8066 87.737 31.8062 87.737 32.3629V32.7605H84.7093H81.6818L81.7715 32.3856C82.0281 31.3178 82.7722 30.3976 83.6959 30.0228C84.3244 29.7615 85.4021 29.7501 86.0436 29.9886Z" fill="white"/>
<path d="M99.3472 27.0351C97.8465 27.2395 96.5505 27.7848 95.5371 28.6481C94.0104 29.9318 93.2663 31.5222 93.1508 33.6806C93.1124 34.6803 93.1508 35.2142 93.3048 35.8731C94.0873 38.9857 96.9354 40.9397 100.694 40.9397C102.67 40.9397 104.748 40.3149 105.993 39.3379L106.595 38.8721L105.492 37.8042L104.377 36.7365L103.902 37.0772C101.823 38.5313 99.026 38.4064 97.7823 36.8046C97.5516 36.4865 97.1021 35.396 97.1021 35.1233C97.1021 35.0779 99.3598 35.0324 102.118 35.0324H107.147L107.07 33.6352C107.031 32.8741 106.904 31.9425 106.801 31.579C106.12 29.4207 104.491 27.8075 102.4 27.2736C101.694 27.0805 99.9758 26.9555 99.3472 27.0351ZM101.541 30.0227C102.234 30.3067 102.811 30.9428 103.055 31.7267C103.414 32.8513 103.671 32.7604 100.233 32.7604H97.192L97.2818 32.2833C97.4611 31.2723 98.3467 30.2726 99.3092 29.9546C99.9505 29.7614 100.951 29.7842 101.541 30.0227Z" fill="white"/>
<path d="M21.5398 33.9532V40.5987H23.5283H25.5168V33.9532V27.3076H23.5283H21.5398V33.9532Z" fill="white"/>
<path d="M27.3127 27.3985C27.3127 27.4894 27.8387 28.6935 29.7502 33.0444C30.3403 34.3508 31.3153 36.5773 31.9312 37.986L33.0472 40.542L35.2282 40.5761L37.4091 40.5987L38.0248 39.2128C38.3713 38.4404 39.064 36.8727 39.5771 35.714C41.5656 31.2041 43.0667 27.8075 43.1436 27.5576L43.2334 27.3076H41.1166H39.0127L38.1147 29.7159C36.1647 34.9415 35.3565 36.975 35.2666 36.8841C35.1768 36.8046 33.9838 33.7487 32.0979 28.8071L31.5206 27.3076H29.4167C28.2621 27.3076 27.3127 27.3531 27.3127 27.3985Z" fill="white"/>
<path d="M44.7088 27.5576C44.6575 27.7052 44.6446 29.8068 44.6703 32.2492C44.7345 37.3385 44.8114 37.8497 45.6709 38.9971C46.8255 40.5306 49.1475 41.269 51.3028 40.7805C52.4446 40.5192 53.1117 40.2012 54.0097 39.4855L54.7667 38.872V39.7355V40.5988H56.6909H58.6153V33.9533V27.3076H56.6397H54.6512L54.6127 31.4995L54.5742 35.6799L54.1252 36.4638C53.5094 37.5316 52.8936 37.9065 51.6877 37.9632C50.5587 38.0201 50.0327 37.861 49.4042 37.259C48.6472 36.5433 48.6088 36.2138 48.6088 31.454V27.3076H46.6973C44.8243 27.3076 44.7857 27.3076 44.7088 27.5576Z" fill="white"/>
<path d="M120.117 4.99589C120.496 4.85141 120.681 4.9116 120.712 5.18853C120.732 5.32099 120.507 5.8388 120.209 6.3927C119.912 6.91048 119.277 8.10258 118.785 9.02976C118.294 9.95695 116.726 12.9071 115.301 15.5923C113.877 18.2776 112.32 21.2036 111.848 22.0947C111.367 22.9856 110.916 23.7683 110.834 23.8166C110.649 23.937 110.598 23.9009 108.426 22.2632C107.432 21.5047 106.551 20.8665 106.459 20.8183C106.284 20.746 106.192 20.8183 103.477 23.2024C102.586 23.9971 101.776 24.6232 101.684 24.5993C101.571 24.5752 101.469 24.2741 101.335 23.5396C101.233 22.9736 100.905 21.2156 100.618 19.6262L100.085 16.7362L99.5218 16.3028C99.2144 16.0499 98.2718 15.3394 97.4213 14.7133C96.5811 14.0751 95.8024 13.473 95.6998 13.3646C95.3208 12.9673 95.6077 12.8107 98.2615 11.9678C102.411 10.6553 106.1 9.48733 108.334 8.77689C109.491 8.40361 110.823 7.98213 111.305 7.82559C113.324 7.19943 119.882 5.08018 120.117 4.99589ZM118.037 6.95862C118.385 6.69373 118.099 6.80212 117.545 7.13926C117.238 7.33194 115.978 8.10257 114.738 8.84912C113.498 9.59566 112.299 10.3302 112.074 10.4747C111.848 10.6192 109.379 12.1364 106.592 13.8463C103.807 15.5551 101.502 16.9753 101.479 16.9891C101.448 17.0252 101.745 20.168 102.002 22.5161C102.063 23.0821 102.145 23.5155 102.196 23.4554C102.268 23.3588 103.006 21.2035 103.579 19.3974L103.877 18.4582L104.799 17.7236C105.741 16.9771 110.69 12.9673 113.58 10.6072C113.939 10.3182 114.758 9.6559 115.404 9.13813C116.05 8.60831 116.869 7.934 117.217 7.645C117.566 7.34397 117.935 7.0429 118.037 6.95862Z" fill="#1BA0E2"/>
</g>
<defs>
<clipPath id="clip0_64_157">
<rect width="127" height="41" fill="white"/>
</clipPath>
</defs>
</svg>
