<svg width="181" height="80" viewBox="0 0 181 80" fill="none" xmlns="http://www.w3.org/2000/svg">
<path d="M50.0792 28.9684C48.7836 29.1728 47.9881 30.4111 48.4628 31.513C49.0144 32.7853 50.7207 33.2056 51.824 32.3536C52.4269 31.8879 52.645 31.4789 52.645 30.8314C52.645 29.6272 51.4519 28.7525 50.0792 28.9684Z" fill="white"/>
<path d="M98.7008 32.3876V35.8069L98.0978 35.3411C96.7892 34.3188 94.9419 33.8417 93.2741 34.0802C90.811 34.4551 88.9252 36.1137 88.1554 38.5901C87.7962 39.7716 87.7705 42.1799 88.1041 43.2818C88.9252 45.974 90.888 47.5872 93.6975 47.8825C95.1985 48.0416 96.9817 47.485 98.0978 46.508L98.7008 45.974V46.7806V47.5985H100.625H102.549V38.2834V28.9683H100.625H98.7008V32.3876ZM96.8534 37.2723C97.9824 37.7495 98.7008 39.1241 98.7008 40.7826C98.7008 43.4522 97.4692 44.9858 95.3011 44.9858C93.3768 44.9858 92.0938 43.6566 91.9399 41.4983C91.7346 38.6355 93.2228 36.8066 95.5961 36.9656C95.9682 36.9997 96.5327 37.136 96.8534 37.2723Z" fill="white"/>
<path d="M27.3849 30.2406C27.603 30.7632 28.0648 31.8764 28.3984 32.7171C29.4503 35.3185 32.5934 42.9864 33.5812 45.3266L34.5049 47.5418H36.9296H39.3414L40.0855 45.781C40.6499 44.4178 46.6795 30.1384 46.9746 29.4454C47.0132 29.3318 46.5256 29.3091 44.6141 29.3318L42.2022 29.3659L41.7661 30.5587C39.9315 35.6252 37.2118 42.941 37.0835 43.2023C36.9296 43.509 36.8911 43.4408 36.3138 41.7823C35.9674 40.8281 34.8 37.6246 33.7095 34.6709L31.721 29.3091H29.3605H27L27.3849 30.2406Z" fill="white"/>
<path d="M110.747 34.0919C107.117 34.5577 104.73 37.3522 104.73 41.0896C104.743 44.3386 106.629 46.7809 109.824 47.667C111.543 48.1328 114.352 47.9397 115.943 47.2467C116.777 46.8831 118.072 46.0652 118.072 45.9063C118.072 45.8494 117.611 45.3496 117.033 44.7816L115.994 43.7478L115.237 44.2136C114.185 44.8384 113.364 45.0997 112.376 45.0997C111.401 45.0997 110.657 44.8838 109.99 44.418C109.464 44.0432 108.9 43.1572 108.759 42.4641L108.682 42.0324L113.659 42.0097L118.65 41.9757L118.611 40.7147C118.534 37.727 117.29 35.6709 114.942 34.6485C113.518 34.0237 112.376 33.876 110.747 34.0919ZM113.044 36.9886C113.3 37.0795 113.672 37.2954 113.865 37.4544C114.288 37.8066 114.737 38.8062 114.737 39.3629V39.7605H111.709H108.682L108.772 39.3856C109.028 38.3178 109.772 37.3976 110.696 37.0228C111.324 36.7615 112.402 36.7501 113.044 36.9886Z" fill="white"/>
<path d="M126.347 34.0351C124.847 34.2395 123.551 34.7848 122.537 35.6481C121.01 36.9318 120.266 38.5222 120.151 40.6806C120.112 41.6803 120.151 42.2142 120.305 42.8731C121.087 45.9857 123.935 47.9397 127.694 47.9397C129.67 47.9397 131.748 47.3149 132.993 46.3379L133.595 45.8721L132.492 44.8042L131.377 43.7365L130.902 44.0772C128.823 45.5313 126.026 45.4064 124.782 43.8046C124.552 43.4865 124.102 42.396 124.102 42.1233C124.102 42.0779 126.36 42.0324 129.118 42.0324H134.147L134.07 40.6352C134.031 39.8741 133.904 38.9425 133.801 38.579C133.12 36.4207 131.491 34.8075 129.4 34.2736C128.694 34.0805 126.976 33.9555 126.347 34.0351ZM128.541 37.0227C129.234 37.3067 129.811 37.9428 130.055 38.7267C130.414 39.8513 130.671 39.7604 127.233 39.7604H124.192L124.282 39.2833C124.461 38.2723 125.347 37.2726 126.309 36.9546C126.951 36.7614 127.951 36.7842 128.541 37.0227Z" fill="white"/>
<path d="M48.5398 40.9532V47.5987H50.5283H52.5168V40.9532V34.3076H50.5283H48.5398V40.9532Z" fill="white"/>
<path d="M54.3127 34.3985C54.3127 34.4894 54.8387 35.6935 56.7502 40.0444C57.3403 41.3508 58.3153 43.5773 58.9312 44.986L60.0472 47.542L62.2282 47.5761L64.4091 47.5987L65.0248 46.2128C65.3713 45.4404 66.064 43.8727 66.5771 42.714C68.5656 38.2041 70.0667 34.8075 70.1436 34.5576L70.2334 34.3076H68.1166H66.0127L65.1147 36.7159C63.1647 41.9415 62.3565 43.975 62.2666 43.8841C62.1768 43.8046 60.9838 40.7487 59.0979 35.8071L58.5206 34.3076H56.4167C55.2621 34.3076 54.3127 34.3531 54.3127 34.3985Z" fill="white"/>
<path d="M71.7088 34.5576C71.6575 34.7052 71.6446 36.8068 71.6703 39.2492C71.7345 44.3385 71.8114 44.8497 72.6709 45.9971C73.8255 47.5306 76.1475 48.269 78.3028 47.7805C79.4446 47.5192 80.1117 47.2012 81.0097 46.4855L81.7667 45.872V46.7355V47.5988H83.6909H85.6153V40.9533V34.3076H83.6397H81.6512L81.6127 38.4995L81.5742 42.6799L81.1252 43.4638C80.5094 44.5316 79.8936 44.9065 78.6877 44.9632C77.5587 45.0201 77.0327 44.861 76.4042 44.259C75.6472 43.5433 75.6088 43.2138 75.6088 38.454V34.3076H73.6973C71.8243 34.3076 71.7857 34.3076 71.7088 34.5576Z" fill="white"/>
<path d="M147.117 11.9959C147.496 11.8514 147.681 11.9116 147.712 12.1885C147.732 12.321 147.507 12.8388 147.209 13.3927C146.912 13.9105 146.277 15.1026 145.785 16.0298C145.294 16.9569 143.726 19.9071 142.301 22.5923C140.877 25.2776 139.32 28.2036 138.848 29.0947C138.367 29.9856 137.916 30.7683 137.834 30.8166C137.649 30.937 137.598 30.9009 135.426 29.2632C134.432 28.5047 133.551 27.8665 133.459 27.8183C133.284 27.746 133.192 27.8183 130.477 30.2024C129.586 30.9971 128.776 31.6232 128.684 31.5993C128.571 31.5752 128.469 31.2741 128.335 30.5396C128.233 29.9736 127.905 28.2156 127.618 26.6262L127.085 23.7362L126.522 23.3028C126.214 23.0499 125.272 22.3394 124.421 21.7133C123.581 21.0751 122.802 20.473 122.7 20.3646C122.321 19.9673 122.608 19.8107 125.261 18.9678C129.411 17.6553 133.1 16.4873 135.334 15.7769C136.491 15.4036 137.823 14.9821 138.305 14.8256C140.324 14.1994 146.882 12.0802 147.117 11.9959ZM145.037 13.9586C145.385 13.6937 145.099 13.8021 144.545 14.1393C144.238 14.3319 142.978 15.1026 141.738 15.8491C140.498 16.5957 139.299 17.3302 139.074 17.4747C138.848 17.6192 136.379 19.1364 133.592 20.8463C130.807 22.5551 128.502 23.9753 128.479 23.9891C128.448 24.0252 128.745 27.168 129.002 29.5161C129.063 30.0821 129.145 30.5155 129.196 30.4554C129.268 30.3588 130.006 28.2035 130.579 26.3974L130.877 25.4582L131.799 24.7236C132.741 23.9771 137.69 19.9673 140.58 17.6072C140.939 17.3182 141.758 16.6559 142.404 16.1381C143.05 15.6083 143.869 14.934 144.217 14.645C144.566 14.344 144.935 14.0429 145.037 13.9586Z" fill="#0E81CD"/>
<path d="M18.9614 60.7578L20.9927 65.0679L23.0366 60.7578H24.9536L21.8813 66.6167V70H20.1104V66.6167L17.0317 60.7578H18.9614ZM25.0361 66.6357V66.5024C25.0361 65.9989 25.1081 65.5355 25.252 65.1123C25.3958 64.6849 25.6053 64.3146 25.8804 64.0015C26.1554 63.6883 26.4919 63.445 26.8896 63.2715C27.2874 63.0938 27.7402 63.0049 28.248 63.0049C28.7643 63.0049 29.2214 63.0938 29.6191 63.2715C30.0212 63.445 30.3597 63.6883 30.6348 64.0015C30.9098 64.3146 31.1193 64.6849 31.2632 65.1123C31.4071 65.5355 31.479 65.9989 31.479 66.5024V66.6357C31.479 67.1351 31.4071 67.5985 31.2632 68.0259C31.1193 68.4491 30.9098 68.8193 30.6348 69.1367C30.3597 69.4499 30.0233 69.6932 29.6255 69.8667C29.2277 70.0402 28.7728 70.127 28.2607 70.127C27.7529 70.127 27.298 70.0402 26.896 69.8667C26.494 69.6932 26.1554 69.4499 25.8804 69.1367C25.6053 68.8193 25.3958 68.4491 25.252 68.0259C25.1081 67.5985 25.0361 67.1351 25.0361 66.6357ZM26.7119 66.5024V66.6357C26.7119 66.9362 26.7415 67.2176 26.8008 67.48C26.86 67.7424 26.951 67.973 27.0737 68.1719C27.1965 68.3708 27.3551 68.5273 27.5498 68.6416C27.7487 68.7516 27.9857 68.8066 28.2607 68.8066C28.5316 68.8066 28.7643 68.7516 28.959 68.6416C29.1536 68.5273 29.3123 68.3708 29.4351 68.1719C29.562 67.973 29.6551 67.7424 29.7144 67.48C29.7736 67.2176 29.8032 66.9362 29.8032 66.6357V66.5024C29.8032 66.2062 29.7736 65.929 29.7144 65.6709C29.6551 65.4085 29.562 65.1779 29.4351 64.979C29.3123 64.7759 29.1515 64.6172 28.9526 64.5029C28.758 64.3844 28.5231 64.3252 28.248 64.3252C27.9772 64.3252 27.7445 64.3844 27.5498 64.5029C27.3551 64.6172 27.1965 64.7759 27.0737 64.979C26.951 65.1779 26.86 65.4085 26.8008 65.6709C26.7415 65.929 26.7119 66.2062 26.7119 66.5024ZM36.7856 68.3687V63.1318H38.4741V70H36.8872L36.7856 68.3687ZM37.0015 66.9468L37.522 66.9341C37.522 67.3953 37.4712 67.8206 37.3696 68.21C37.2681 68.5993 37.1094 68.9378 36.8936 69.2256C36.682 69.5091 36.4132 69.7313 36.0874 69.8921C35.7616 70.0487 35.3765 70.127 34.9321 70.127C34.5936 70.127 34.2847 70.0804 34.0054 69.9873C33.7261 69.89 33.4849 69.7397 33.2817 69.5366C33.0828 69.3293 32.9284 69.0648 32.8184 68.7432C32.7083 68.4173 32.6533 68.0259 32.6533 67.5688V63.1318H34.3291V67.5815C34.3291 67.8101 34.3545 68.0005 34.4053 68.1528C34.4603 68.3052 34.5343 68.43 34.6274 68.5273C34.7248 68.6204 34.8369 68.6882 34.9639 68.7305C35.0951 68.7686 35.2347 68.7876 35.3828 68.7876C35.7891 68.7876 36.1086 68.7072 36.3413 68.5464C36.5783 68.3813 36.7476 68.1613 36.8491 67.8862C36.9507 67.6069 37.0015 67.2938 37.0015 66.9468ZM41.6353 64.5347V70H39.9595V63.1318H41.5464L41.6353 64.5347ZM43.7236 63.0874L43.6982 64.6489C43.6051 64.632 43.4993 64.6193 43.3809 64.6108C43.2666 64.6024 43.1587 64.5981 43.0571 64.5981C42.799 64.5981 42.5726 64.6341 42.3779 64.7061C42.1833 64.7738 42.0203 64.8732 41.8892 65.0044C41.7622 65.1356 41.6649 65.2964 41.5972 65.4868C41.5295 65.673 41.4914 65.8846 41.4829 66.1216L41.1211 66.0771C41.1211 65.6413 41.1655 65.2371 41.2544 64.8647C41.3433 64.4924 41.4723 64.1665 41.6416 63.8872C41.8109 63.6079 42.0225 63.3921 42.2764 63.2397C42.5345 63.0832 42.8307 63.0049 43.165 63.0049C43.2581 63.0049 43.3576 63.0133 43.4634 63.0303C43.5734 63.043 43.6602 63.062 43.7236 63.0874ZM51.7788 67.1943V60.7578H53.5244V67.1943C53.5244 67.8079 53.3911 68.3348 53.1245 68.7749C52.8579 69.2108 52.494 69.5451 52.0327 69.7778C51.5715 70.0106 51.0509 70.127 50.4712 70.127C49.8745 70.127 49.3455 70.0275 48.8843 69.8286C48.423 69.6255 48.0612 69.3166 47.7988 68.9019C47.5407 68.4871 47.4116 67.9603 47.4116 67.3213H49.1636C49.1636 67.6683 49.2165 67.9476 49.3223 68.1592C49.4281 68.3708 49.5783 68.5231 49.7729 68.6162C49.9718 68.7093 50.2046 68.7559 50.4712 68.7559C50.7293 68.7559 50.9557 68.6966 51.1504 68.5781C51.3493 68.4554 51.5037 68.2777 51.6138 68.0449C51.7238 67.8122 51.7788 67.5286 51.7788 67.1943ZM54.832 66.6357V66.5024C54.832 65.9989 54.904 65.5355 55.0479 65.1123C55.1917 64.6849 55.4012 64.3146 55.6763 64.0015C55.9513 63.6883 56.2878 63.445 56.6855 63.2715C57.0833 63.0938 57.5361 63.0049 58.0439 63.0049C58.5602 63.0049 59.0173 63.0938 59.415 63.2715C59.8171 63.445 60.1556 63.6883 60.4307 64.0015C60.7057 64.3146 60.9152 64.6849 61.0591 65.1123C61.203 65.5355 61.2749 65.9989 61.2749 66.5024V66.6357C61.2749 67.1351 61.203 67.5985 61.0591 68.0259C60.9152 68.4491 60.7057 68.8193 60.4307 69.1367C60.1556 69.4499 59.8192 69.6932 59.4214 69.8667C59.0236 70.0402 58.5687 70.127 58.0566 70.127C57.5488 70.127 57.0939 70.0402 56.6919 69.8667C56.2899 69.6932 55.9513 69.4499 55.6763 69.1367C55.4012 68.8193 55.1917 68.4491 55.0479 68.0259C54.904 67.5985 54.832 67.1351 54.832 66.6357ZM56.5078 66.5024V66.6357C56.5078 66.9362 56.5374 67.2176 56.5967 67.48C56.6559 67.7424 56.7469 67.973 56.8696 68.1719C56.9924 68.3708 57.151 68.5273 57.3457 68.6416C57.5446 68.7516 57.7816 68.8066 58.0566 68.8066C58.3275 68.8066 58.5602 68.7516 58.7549 68.6416C58.9495 68.5273 59.1082 68.3708 59.231 68.1719C59.3579 67.973 59.451 67.7424 59.5103 67.48C59.5695 67.2176 59.5991 66.9362 59.5991 66.6357V66.5024C59.5991 66.2062 59.5695 65.929 59.5103 65.6709C59.451 65.4085 59.3579 65.1779 59.231 64.979C59.1082 64.7759 58.9474 64.6172 58.7485 64.5029C58.5539 64.3844 58.319 64.3252 58.0439 64.3252C57.7731 64.3252 57.5404 64.3844 57.3457 64.5029C57.151 64.6172 56.9924 64.7759 56.8696 64.979C56.7469 65.1779 56.6559 65.4085 56.5967 65.6709C56.5374 65.929 56.5078 66.2062 56.5078 66.5024ZM66.5815 68.3687V63.1318H68.27V70H66.6831L66.5815 68.3687ZM66.7974 66.9468L67.3179 66.9341C67.3179 67.3953 67.2671 67.8206 67.1655 68.21C67.064 68.5993 66.9053 68.9378 66.6895 69.2256C66.4779 69.5091 66.2091 69.7313 65.8833 69.8921C65.5575 70.0487 65.1724 70.127 64.728 70.127C64.3895 70.127 64.0806 70.0804 63.8013 69.9873C63.522 69.89 63.2808 69.7397 63.0776 69.5366C62.8787 69.3293 62.7243 69.0648 62.6143 68.7432C62.5042 68.4173 62.4492 68.0259 62.4492 67.5688V63.1318H64.125V67.5815C64.125 67.8101 64.1504 68.0005 64.2012 68.1528C64.2562 68.3052 64.3302 68.43 64.4233 68.5273C64.5207 68.6204 64.6328 68.6882 64.7598 68.7305C64.891 68.7686 65.0306 68.7876 65.1787 68.7876C65.585 68.7876 65.9045 68.7072 66.1372 68.5464C66.3742 68.3813 66.5435 68.1613 66.645 67.8862C66.7466 67.6069 66.7974 67.2938 66.7974 66.9468ZM71.4312 64.5347V70H69.7554V63.1318H71.3423L71.4312 64.5347ZM73.5195 63.0874L73.4941 64.6489C73.401 64.632 73.2952 64.6193 73.1768 64.6108C73.0625 64.6024 72.9546 64.5981 72.853 64.5981C72.5949 64.5981 72.3685 64.6341 72.1738 64.7061C71.9792 64.7738 71.8162 64.8732 71.6851 65.0044C71.5581 65.1356 71.4608 65.2964 71.3931 65.4868C71.3254 65.673 71.2873 65.8846 71.2788 66.1216L70.917 66.0771C70.917 65.6413 70.9614 65.2371 71.0503 64.8647C71.1392 64.4924 71.2682 64.1665 71.4375 63.8872C71.6068 63.6079 71.8184 63.3921 72.0723 63.2397C72.3304 63.0832 72.6266 63.0049 72.9609 63.0049C73.054 63.0049 73.1535 63.0133 73.2593 63.0303C73.3693 63.043 73.4561 63.062 73.5195 63.0874ZM76.084 64.5981V70H74.4082V63.1318H75.9824L76.084 64.5981ZM75.8174 66.3184H75.3223C75.3265 65.819 75.3942 65.3662 75.5254 64.96C75.6566 64.5537 75.8407 64.2046 76.0776 63.9126C76.3188 63.6206 76.6045 63.3963 76.9346 63.2397C77.2646 63.0832 77.6328 63.0049 78.0391 63.0049C78.3691 63.0049 78.6675 63.0514 78.9341 63.1445C79.2007 63.2376 79.4292 63.3857 79.6196 63.5889C79.8143 63.792 79.9624 64.0586 80.064 64.3887C80.1698 64.7145 80.2227 65.1165 80.2227 65.5947V70H78.5342V65.582C78.5342 65.2689 78.4876 65.0213 78.3945 64.8394C78.3057 64.6574 78.1745 64.5283 78.001 64.4521C77.8317 64.376 77.6222 64.3379 77.3726 64.3379C77.1144 64.3379 76.888 64.3908 76.6934 64.4966C76.5029 64.5981 76.3421 64.7399 76.2109 64.9219C76.084 65.1038 75.9867 65.3133 75.9189 65.5503C75.8512 65.7873 75.8174 66.0433 75.8174 66.3184ZM84.7866 70.127C84.2661 70.127 83.7985 70.0423 83.3838 69.873C82.9691 69.7038 82.6157 69.4689 82.3237 69.1685C82.036 68.8638 81.8138 68.5104 81.6572 68.1084C81.5049 67.7021 81.4287 67.2663 81.4287 66.8008V66.5469C81.4287 66.0179 81.5049 65.5376 81.6572 65.106C81.8096 64.6701 82.0254 64.2956 82.3047 63.9824C82.584 63.6693 82.9183 63.4281 83.3076 63.2588C83.6969 63.0895 84.1265 63.0049 84.5962 63.0049C85.0828 63.0049 85.5124 63.0874 85.8848 63.2524C86.2572 63.4132 86.5682 63.6418 86.8179 63.938C87.0675 64.2342 87.2559 64.5897 87.3828 65.0044C87.5098 65.4149 87.5732 65.8698 87.5732 66.3691V67.0737H82.1904V65.9185H85.9229V65.7915C85.9144 65.5249 85.8636 65.2816 85.7705 65.0615C85.6774 64.8372 85.5335 64.6595 85.3389 64.5283C85.1442 64.3929 84.8924 64.3252 84.5835 64.3252C84.3338 64.3252 84.1159 64.3802 83.9297 64.4902C83.7477 64.596 83.5954 64.7484 83.4727 64.9473C83.3542 65.1419 83.2653 65.3747 83.2061 65.6455C83.1468 65.9163 83.1172 66.2168 83.1172 66.5469V66.8008C83.1172 67.0885 83.1553 67.3551 83.2314 67.6006C83.3118 67.846 83.4282 68.0597 83.5806 68.2417C83.7371 68.4194 83.9233 68.5591 84.1392 68.6606C84.3592 68.758 84.6089 68.8066 84.8882 68.8066C85.2394 68.8066 85.5568 68.7389 85.8403 68.6035C86.1281 68.4639 86.3778 68.2586 86.5894 67.9878L87.4336 68.8638C87.2897 69.0754 87.0951 69.2785 86.8496 69.4731C86.6084 69.6678 86.3164 69.8265 85.9736 69.9492C85.6309 70.0677 85.2352 70.127 84.7866 70.127ZM90.6201 69.2383L92.4609 63.1318H94.2573L91.5024 71.041C91.439 71.2103 91.3564 71.3944 91.2549 71.5933C91.1576 71.7922 91.0264 71.9805 90.8613 72.1582C90.6963 72.3402 90.4889 72.4883 90.2393 72.6025C89.9938 72.7168 89.6955 72.7739 89.3442 72.7739C89.1919 72.7739 89.0565 72.7633 88.938 72.7422C88.8195 72.721 88.6947 72.6935 88.5635 72.6597V71.4028C88.6058 71.4071 88.6545 71.4092 88.7095 71.4092C88.7687 71.4134 88.8195 71.4155 88.8618 71.4155C89.1073 71.4155 89.3104 71.3859 89.4712 71.3267C89.632 71.2716 89.7611 71.1807 89.8584 71.0537C89.96 70.931 90.0446 70.7702 90.1123 70.5713L90.6201 69.2383ZM89.7124 63.1318L91.2676 68.1909L91.5405 69.9619L90.3853 70.1714L87.9033 63.1318H89.7124ZM103.271 67.6006C103.271 67.4229 103.243 67.2642 103.188 67.1245C103.138 66.9806 103.042 66.8516 102.903 66.7373C102.767 66.6188 102.575 66.5046 102.325 66.3945C102.08 66.2803 101.762 66.1618 101.373 66.0391C100.941 65.9036 100.539 65.7513 100.167 65.582C99.7946 65.4128 99.4666 65.216 99.1831 64.9917C98.9038 64.7674 98.6859 64.5093 98.5293 64.2173C98.3727 63.9211 98.2944 63.5783 98.2944 63.189C98.2944 62.8081 98.3748 62.4611 98.5356 62.1479C98.7007 61.8348 98.9334 61.5661 99.2339 61.3418C99.5343 61.1133 99.8877 60.9377 100.294 60.8149C100.704 60.6922 101.157 60.6309 101.652 60.6309C102.338 60.6309 102.93 60.7557 103.43 61.0054C103.933 61.255 104.323 61.5936 104.598 62.021C104.873 62.4484 105.01 62.9287 105.01 63.4619H103.271C103.271 63.1742 103.21 62.9202 103.087 62.7002C102.968 62.4801 102.786 62.3066 102.541 62.1797C102.3 62.0527 101.995 61.9893 101.627 61.9893C101.271 61.9893 100.975 62.0422 100.738 62.1479C100.506 62.2537 100.33 62.3976 100.211 62.5796C100.097 62.7616 100.04 62.9647 100.04 63.189C100.04 63.3582 100.08 63.5106 100.161 63.646C100.241 63.7772 100.362 63.902 100.522 64.0205C100.683 64.1348 100.882 64.2427 101.119 64.3442C101.36 64.4416 101.64 64.5389 101.957 64.6362C102.465 64.7886 102.909 64.9578 103.29 65.144C103.675 65.3302 103.995 65.5418 104.249 65.7788C104.507 66.0158 104.699 66.2824 104.826 66.5786C104.957 66.8748 105.023 67.2113 105.023 67.5879C105.023 67.9857 104.945 68.3411 104.788 68.6543C104.632 68.9674 104.407 69.234 104.115 69.4541C103.823 69.6742 103.472 69.8413 103.062 69.9556C102.655 70.0698 102.2 70.127 101.697 70.127C101.248 70.127 100.804 70.0677 100.364 69.9492C99.9279 69.8265 99.5322 69.6445 99.1768 69.4033C98.8213 69.1579 98.5378 68.849 98.3262 68.4766C98.1146 68.0999 98.0088 67.6598 98.0088 67.1562H99.7607C99.7607 67.4482 99.8073 67.6979 99.9004 67.9053C99.9977 68.1084 100.133 68.2756 100.307 68.4067C100.484 68.5337 100.692 68.6268 100.929 68.686C101.166 68.7453 101.422 68.7749 101.697 68.7749C102.052 68.7749 102.344 68.7262 102.573 68.6289C102.806 68.5273 102.979 68.3877 103.093 68.21C103.212 68.0322 103.271 67.8291 103.271 67.6006ZM109.492 63.1318V64.3379H105.556V63.1318H109.492ZM106.61 61.4434H108.292V68.0195C108.292 68.2227 108.319 68.3792 108.375 68.4893C108.43 68.5993 108.512 68.6733 108.622 68.7114C108.732 68.7495 108.863 68.7686 109.016 68.7686C109.126 68.7686 109.227 68.7622 109.32 68.7495C109.413 68.7368 109.492 68.7241 109.555 68.7114L109.562 69.9683C109.422 70.0148 109.263 70.0529 109.085 70.0825C108.912 70.1121 108.715 70.127 108.495 70.127C108.118 70.127 107.788 70.0635 107.505 69.9365C107.221 69.8053 107.001 69.5959 106.845 69.3081C106.688 69.0161 106.61 68.631 106.61 68.1528V61.4434ZM114.392 68.54V65.3726C114.392 65.1398 114.352 64.9388 114.271 64.7695C114.191 64.6003 114.068 64.4691 113.903 64.376C113.738 64.2829 113.529 64.2363 113.275 64.2363C113.051 64.2363 112.854 64.2744 112.685 64.3506C112.52 64.4268 112.393 64.5347 112.304 64.6743C112.215 64.8097 112.17 64.9663 112.17 65.144H110.488C110.488 64.8605 110.556 64.5918 110.691 64.3379C110.827 64.0798 111.019 63.8512 111.269 63.6523C111.523 63.4492 111.826 63.2905 112.177 63.1763C112.532 63.062 112.93 63.0049 113.37 63.0049C113.891 63.0049 114.354 63.0938 114.76 63.2715C115.171 63.445 115.492 63.7074 115.725 64.0586C115.962 64.4098 116.081 64.8521 116.081 65.3853V68.3813C116.081 68.7241 116.102 69.0182 116.144 69.2637C116.191 69.5049 116.258 69.7144 116.347 69.8921V70H114.64C114.559 69.8265 114.498 69.6064 114.456 69.3398C114.413 69.069 114.392 68.8024 114.392 68.54ZM114.627 65.8169L114.64 66.8135H113.58C113.317 66.8135 113.087 66.841 112.888 66.896C112.689 66.9468 112.526 67.0229 112.399 67.1245C112.272 67.2218 112.177 67.3403 112.113 67.48C112.05 67.6154 112.018 67.7699 112.018 67.9434C112.018 68.1126 112.056 68.265 112.132 68.4004C112.213 68.5358 112.327 68.6437 112.475 68.7241C112.627 68.8003 112.805 68.8384 113.008 68.8384C113.305 68.8384 113.563 68.7791 113.783 68.6606C114.003 68.5379 114.174 68.3898 114.297 68.2163C114.42 68.0428 114.485 67.8778 114.494 67.7212L114.976 68.4448C114.917 68.6183 114.828 68.8024 114.709 68.9971C114.591 69.1917 114.439 69.3737 114.252 69.543C114.066 69.7122 113.842 69.8519 113.58 69.9619C113.317 70.0719 113.013 70.127 112.666 70.127C112.221 70.127 111.823 70.0381 111.472 69.8604C111.121 69.6826 110.844 69.4393 110.641 69.1304C110.438 68.8215 110.336 68.4702 110.336 68.0767C110.336 67.7127 110.404 67.3911 110.539 67.1118C110.674 66.8325 110.875 66.5977 111.142 66.4072C111.409 66.2126 111.739 66.0666 112.132 65.9692C112.53 65.8677 112.985 65.8169 113.497 65.8169H114.627ZM119.267 64.5347V70H117.591V63.1318H119.178L119.267 64.5347ZM121.355 63.0874L121.33 64.6489C121.237 64.632 121.131 64.6193 121.013 64.6108C120.898 64.6024 120.791 64.5981 120.689 64.5981C120.431 64.5981 120.204 64.6341 120.01 64.7061C119.815 64.7738 119.652 64.8732 119.521 65.0044C119.394 65.1356 119.297 65.2964 119.229 65.4868C119.161 65.673 119.123 65.8846 119.115 66.1216L118.753 66.0771C118.753 65.6413 118.797 65.2371 118.886 64.8647C118.975 64.4924 119.104 64.1665 119.273 63.8872C119.443 63.6079 119.654 63.3921 119.908 63.2397C120.166 63.0832 120.463 63.0049 120.797 63.0049C120.89 63.0049 120.989 63.0133 121.095 63.0303C121.205 63.043 121.292 63.062 121.355 63.0874ZM125.843 63.1318V64.3379H121.908V63.1318H125.843ZM122.961 61.4434H124.644V68.0195C124.644 68.2227 124.671 68.3792 124.726 68.4893C124.781 68.5993 124.864 68.6733 124.974 68.7114C125.084 68.7495 125.215 68.7686 125.367 68.7686C125.477 68.7686 125.579 68.7622 125.672 68.7495C125.765 68.7368 125.843 68.7241 125.907 68.7114L125.913 69.9683C125.773 70.0148 125.615 70.0529 125.437 70.0825C125.264 70.1121 125.067 70.127 124.847 70.127C124.47 70.127 124.14 70.0635 123.856 69.9365C123.573 69.8053 123.353 69.5959 123.196 69.3081C123.04 69.0161 122.961 68.631 122.961 68.1528V61.4434ZM130.737 68.1211C130.737 67.9772 130.699 67.8481 130.623 67.7339C130.547 67.6196 130.403 67.516 130.191 67.4229C129.984 67.3255 129.679 67.2345 129.277 67.1499C128.922 67.0737 128.594 66.9785 128.293 66.8643C127.993 66.75 127.735 66.6125 127.519 66.4517C127.303 66.2866 127.134 66.0941 127.011 65.874C126.893 65.6497 126.833 65.3916 126.833 65.0996C126.833 64.8161 126.895 64.5495 127.018 64.2998C127.14 64.0459 127.318 63.8237 127.551 63.6333C127.784 63.4386 128.067 63.2863 128.401 63.1763C128.736 63.062 129.112 63.0049 129.531 63.0049C130.115 63.0049 130.617 63.1001 131.036 63.2905C131.459 63.481 131.783 63.7433 132.007 64.0776C132.231 64.4077 132.343 64.7801 132.343 65.1948H130.667C130.667 65.0129 130.625 64.8478 130.541 64.6997C130.46 64.5516 130.335 64.4331 130.166 64.3442C129.997 64.2511 129.783 64.2046 129.525 64.2046C129.292 64.2046 129.095 64.2427 128.935 64.3188C128.778 64.395 128.66 64.4945 128.579 64.6172C128.499 64.7399 128.458 64.8753 128.458 65.0234C128.458 65.1335 128.48 65.2329 128.522 65.3218C128.569 65.4064 128.643 65.4847 128.744 65.5566C128.846 65.6286 128.983 65.6942 129.157 65.7534C129.334 65.8127 129.552 65.8698 129.811 65.9248C130.323 66.0264 130.769 66.1618 131.15 66.3311C131.535 66.4961 131.835 66.7161 132.051 66.9912C132.267 67.2663 132.375 67.6175 132.375 68.0449C132.375 68.3496 132.309 68.6289 132.178 68.8828C132.047 69.1325 131.857 69.3504 131.607 69.5366C131.357 69.7228 131.059 69.8688 130.712 69.9746C130.365 70.0762 129.973 70.127 129.538 70.127C128.907 70.127 128.374 70.0148 127.938 69.7905C127.502 69.562 127.172 69.2743 126.948 68.9272C126.723 68.576 126.611 68.2121 126.611 67.8354H128.217C128.23 68.1021 128.302 68.3158 128.433 68.4766C128.564 68.6374 128.729 68.7537 128.928 68.8257C129.131 68.8934 129.345 68.9272 129.569 68.9272C129.823 68.9272 130.037 68.8934 130.21 68.8257C130.384 68.7537 130.515 68.6585 130.604 68.54C130.693 68.4173 130.737 68.2777 130.737 68.1211ZM143.147 64.5728V65.9438H138.285V64.5728H143.147ZM138.761 60.7578V70H137.015V60.7578H138.761ZM144.442 60.7578V70H142.696V60.7578H144.442ZM149.177 70.127C148.657 70.127 148.189 70.0423 147.774 69.873C147.36 69.7038 147.006 69.4689 146.714 69.1685C146.427 68.8638 146.204 68.5104 146.048 68.1084C145.896 67.7021 145.819 67.2663 145.819 66.8008V66.5469C145.819 66.0179 145.896 65.5376 146.048 65.106C146.2 64.6701 146.416 64.2956 146.695 63.9824C146.975 63.6693 147.309 63.4281 147.698 63.2588C148.088 63.0895 148.517 63.0049 148.987 63.0049C149.473 63.0049 149.903 63.0874 150.275 63.2524C150.648 63.4132 150.959 63.6418 151.208 63.938C151.458 64.2342 151.646 64.5897 151.773 65.0044C151.9 65.4149 151.964 65.8698 151.964 66.3691V67.0737H146.581V65.9185H150.313V65.7915C150.305 65.5249 150.254 65.2816 150.161 65.0615C150.068 64.8372 149.924 64.6595 149.729 64.5283C149.535 64.3929 149.283 64.3252 148.974 64.3252C148.724 64.3252 148.507 64.3802 148.32 64.4902C148.138 64.596 147.986 64.7484 147.863 64.9473C147.745 65.1419 147.656 65.3747 147.597 65.6455C147.537 65.9163 147.508 66.2168 147.508 66.5469V66.8008C147.508 67.0885 147.546 67.3551 147.622 67.6006C147.702 67.846 147.819 68.0597 147.971 68.2417C148.128 68.4194 148.314 68.5591 148.53 68.6606C148.75 68.758 149 68.8066 149.279 68.8066C149.63 68.8066 149.947 68.7389 150.231 68.6035C150.519 68.4639 150.768 68.2586 150.98 67.9878L151.824 68.8638C151.68 69.0754 151.486 69.2785 151.24 69.4731C150.999 69.6678 150.707 69.8265 150.364 69.9492C150.021 70.0677 149.626 70.127 149.177 70.127ZM154.763 64.5347V70H153.087V63.1318H154.674L154.763 64.5347ZM156.852 63.0874L156.826 64.6489C156.733 64.632 156.627 64.6193 156.509 64.6108C156.395 64.6024 156.287 64.5981 156.185 64.5981C155.927 64.5981 155.701 64.6341 155.506 64.7061C155.311 64.7738 155.148 64.8732 155.017 65.0044C154.89 65.1356 154.793 65.2964 154.725 65.4868C154.657 65.673 154.619 65.8846 154.611 66.1216L154.249 66.0771C154.249 65.6413 154.293 65.2371 154.382 64.8647C154.471 64.4924 154.6 64.1665 154.77 63.8872C154.939 63.6079 155.15 63.3921 155.404 63.2397C155.662 63.0832 155.959 63.0049 156.293 63.0049C156.386 63.0049 156.486 63.0133 156.591 63.0303C156.701 63.043 156.788 63.062 156.852 63.0874ZM160.73 70.127C160.209 70.127 159.742 70.0423 159.327 69.873C158.912 69.7038 158.559 69.4689 158.267 69.1685C157.979 68.8638 157.757 68.5104 157.601 68.1084C157.448 67.7021 157.372 67.2663 157.372 66.8008V66.5469C157.372 66.0179 157.448 65.5376 157.601 65.106C157.753 64.6701 157.969 64.2956 158.248 63.9824C158.527 63.6693 158.862 63.4281 159.251 63.2588C159.64 63.0895 160.07 63.0049 160.54 63.0049C161.026 63.0049 161.456 63.0874 161.828 63.2524C162.201 63.4132 162.512 63.6418 162.761 63.938C163.011 64.2342 163.199 64.5897 163.326 65.0044C163.453 65.4149 163.517 65.8698 163.517 66.3691V67.0737H158.134V65.9185H161.866V65.7915C161.858 65.5249 161.807 65.2816 161.714 65.0615C161.621 64.8372 161.477 64.6595 161.282 64.5283C161.088 64.3929 160.836 64.3252 160.527 64.3252C160.277 64.3252 160.059 64.3802 159.873 64.4902C159.691 64.596 159.539 64.7484 159.416 64.9473C159.298 65.1419 159.209 65.3747 159.149 65.6455C159.09 65.9163 159.061 66.2168 159.061 66.5469V66.8008C159.061 67.0885 159.099 67.3551 159.175 67.6006C159.255 67.846 159.372 68.0597 159.524 68.2417C159.681 68.4194 159.867 68.5591 160.083 68.6606C160.303 68.758 160.552 68.8066 160.832 68.8066C161.183 68.8066 161.5 68.7389 161.784 68.6035C162.071 68.4639 162.321 68.2586 162.533 67.9878L163.377 68.8638C163.233 69.0754 163.038 69.2785 162.793 69.4731C162.552 69.6678 162.26 69.8265 161.917 69.9492C161.574 70.0677 161.179 70.127 160.73 70.127Z" fill="#EBEBEB" fill-opacity="0.64"/>
</svg>
