<svg width="26" height="20" viewBox="0 0 26 20" fill="none" xmlns="http://www.w3.org/2000/svg">
<path d="M24.5527 0.0759706C24.9319 -0.0685083 25.1161 -0.00832102 25.1472 0.268607C25.1676 0.401063 24.9421 0.918879 24.645 1.47278C24.348 1.99056 23.7126 3.18266 23.2206 4.10984C22.7292 5.03702 21.1613 7.98716 19.7369 10.6724C18.3125 13.3576 16.7554 16.2836 16.2838 17.1748C15.8026 18.0657 15.3514 18.8484 15.2698 18.8967C15.085 19.017 15.034 18.981 12.8613 17.3433C11.8677 16.5848 10.9863 15.9466 10.8944 15.8984C10.7199 15.8261 10.628 15.8984 7.9125 18.2825C7.02122 19.0772 6.21179 19.7033 6.11941 19.6793C6.00667 19.6552 5.90419 19.3542 5.77098 18.6197C5.66856 18.0537 5.3406 16.2957 5.05372 14.7063L4.52091 11.8163L3.95737 11.3829C3.64998 11.1299 2.7073 10.4195 1.85684 9.79337C1.01669 9.15523 0.23793 8.55312 0.135395 8.44468C-0.243699 8.04735 0.0432262 7.89077 2.69704 7.04792C6.84687 5.7354 10.5356 4.56741 12.7695 3.85697C13.927 3.48369 15.259 3.06221 15.7408 2.90567C17.7593 2.2795 24.3174 0.16026 24.5527 0.0759706ZM22.473 2.0387C22.821 1.77381 22.5342 1.8822 21.981 2.21934C21.6737 2.41202 20.4131 3.18265 19.1735 3.92919C17.9338 4.67574 16.735 5.41025 16.5094 5.55478C16.2838 5.69928 13.8147 7.21649 11.0276 8.92635C8.24213 10.6352 5.93776 12.0554 5.91445 12.0691C5.88372 12.1053 6.18085 15.2481 6.43706 17.5962C6.4985 18.1621 6.58047 18.5956 6.63171 18.5354C6.70346 18.4389 7.44119 16.2836 8.01498 14.4774L8.31211 13.5383L9.23423 12.8037C10.1769 12.0571 15.1258 8.04735 18.0155 5.68723C18.3743 5.39824 19.1939 4.73598 19.8395 4.2182C20.4851 3.68839 21.3047 3.01407 21.6528 2.72508C22.0014 2.42405 22.3704 2.12298 22.473 2.0387Z" fill="#0E81CD"/>
</svg>
